<svg xmlns="http://www.w3.org/2000/svg" viewBox="0 0 16 16" id="Tiktok--Streamline-Font-Awesome" height="16" width="16">
  <desc>
    Tiktok Streamline Icon: https://streamlinehq.com
  </desc>
<!--! Font Awesome Free 6.5.2 by @fontawesome - https://fontawesome.com License - https://fontawesome.com/license/free (Icons: CC BY 4.0, Fonts: SIL OFL 1.1, Code: MIT License) Copyright 2024 Fonticons, Inc.-->
  <path d="M14.85967857142857 6.590028571428571c-1.3485964285714285 0.003225 -2.6641214285714283 -0.41735 -3.760728571428571 -1.2023178571428572v5.474607142857142c-0.0014107142857142855 3.8330535714285716 -4.151689285714285 6.227189285714285 -7.470507142857143 4.309442857142857 -3.3188178571428573 -1.9177464285714285 -3.3170607142857143 -6.709064285714286 0.003164285714285714 -8.624371428571429 0.9590357142857143 -0.5532285714285714 2.0750964285714284 -0.7710428571428571 3.1717714285714287 -0.6190178571428571v2.753539285714286c-1.678517857142857 -0.527975 -3.2991392857142854 0.9590928571428572 -2.917117857142857 2.6767178571428567 0.38202142857142857 1.7176285714285715 2.480167857142857 2.3775928571428566 3.7766642857142854 1.1879392857142859 0.47181428571428574 -0.4329285714285714 0.7403928571428572 -1.0439107142857142 0.7403785714285713 -1.6842499999999998V0.16h2.6956464285714286c-0.001875 0.2276392857142857 0.017199999999999997 0.4549714285714286 0.056975 0.6791178571428571 0.18931071428571428 1.0112714285714286 0.7865714285714286 1.9000142857142857 1.6513892857142856 2.4573249999999995 0.6087857142857143 0.4025392857142857 1.3225285714285713 0.6170892857142857 2.0523642857142854 0.6169357142857143Z" fill="#000000" stroke-width="0.0357"></path>
</svg>