<?xml version="1.0" standalone="no"?>
<!DOCTYPE svg PUBLIC "-//W3C//DTD SVG 20010904//EN"
 "http://www.w3.org/TR/2001/REC-SVG-20010904/DTD/svg10.dtd">
<svg version="1.0" xmlns="http://www.w3.org/2000/svg"
 width="330.000000pt" height="286.000000pt" viewBox="0 0 330.000000 286.000000"
 preserveAspectRatio="xMidYMid meet">

<g transform="translate(0.000000,286.000000) scale(0.100000,-0.100000)"
fill="#000000" stroke="none">
<path d="M1608 2733 c-8 -10 -13 -44 -13 -97 0 -45 -4 -86 -8 -93 -4 -6 -7
-24 -7 -40 0 -45 -8 -258 -10 -263 -3 -7 -10 -135 -10 -184 0 -40 19 -65 51
-66 27 0 38 23 43 86 2 32 9 71 14 85 6 14 7 32 2 39 -5 8 -7 17 -4 21 2 4 6
44 9 90 3 46 9 93 12 104 3 11 7 43 8 70 1 28 6 94 10 147 9 106 11 101 -52
112 -22 3 -35 0 -45 -11z"/>
<path d="M2286 2705 c-9 -14 -23 -25 -31 -25 -17 0 -34 -30 -28 -47 3 -7 -12
-22 -31 -34 -20 -12 -35 -26 -34 -33 4 -18 -26 -56 -44 -56 -9 0 -20 -10 -24
-22 -3 -12 -17 -33 -30 -47 -13 -14 -30 -39 -38 -56 -15 -30 -47 -70 -63 -76
-5 -2 -20 -22 -33 -44 -27 -46 -106 -149 -135 -177 -57 -54 -65 -63 -65 -74 0
-17 34 -44 56 -44 25 0 149 122 188 185 10 16 40 52 67 78 27 27 49 53 49 58
0 16 64 98 82 104 9 3 26 21 37 40 11 19 25 35 30 35 5 0 26 26 47 58 21 31
42 60 47 63 5 3 16 19 26 35 16 27 16 32 2 66 -19 45 -50 51 -75 13z"/>
<path d="M1180 2676 c-5 -13 -14 -27 -19 -31 -7 -4 -8 -13 -2 -23 4 -9 11 -41
15 -71 4 -29 16 -66 28 -82 14 -19 22 -43 21 -67 -1 -20 5 -45 14 -54 8 -9 12
-21 9 -27 -9 -13 16 -104 30 -114 7 -4 15 -26 19 -49 4 -23 11 -49 16 -58 4
-8 11 -31 14 -52 7 -46 41 -70 85 -62 l31 7 -7 56 c-3 31 -10 61 -14 66 -4 6
-10 37 -14 69 -3 33 -10 64 -16 70 -5 5 -10 26 -10 45 0 20 -7 49 -15 65 -8
15 -15 36 -15 46 0 10 -6 23 -13 29 -8 6 -12 23 -9 41 3 18 -2 38 -10 48 -8 9
-20 37 -27 62 -24 87 -39 110 -72 110 -22 0 -32 -6 -39 -24z"/>
<path d="M688 2629 c-33 -13 -39 -27 -28 -73 5 -24 24 -51 54 -80 25 -23 46
-48 46 -56 0 -11 23 -39 100 -119 14 -14 40 -44 59 -66 18 -22 53 -61 77 -87
24 -26 44 -51 44 -57 0 -6 5 -11 10 -11 6 0 10 -6 10 -14 0 -8 13 -25 28 -38
16 -13 42 -40 58 -60 35 -46 78 -52 95 -14 10 21 7 30 -17 63 -16 21 -35 44
-41 51 -7 7 -13 19 -13 26 0 7 -11 22 -25 34 -14 12 -25 28 -25 35 0 8 -14 27
-30 43 -63 60 -170 192 -170 209 0 9 -25 41 -55 70 -30 30 -55 58 -55 62 0 5
-9 14 -20 21 -11 7 -20 20 -20 30 0 38 -30 50 -82 31z"/>
<path d="M2524 2275 c-10 -8 -26 -15 -35 -15 -9 0 -22 -7 -29 -15 -15 -19
-116 -75 -134 -75 -8 0 -38 -16 -67 -36 -58 -40 -133 -83 -189 -109 -19 -9
-44 -22 -55 -28 -11 -6 -32 -17 -46 -24 -38 -19 -51 -38 -47 -70 5 -42 51 -43
114 -4 26 17 53 31 60 31 6 0 17 7 24 15 7 8 19 15 27 15 8 0 21 7 29 15 9 8
26 15 38 15 13 0 29 6 35 14 22 27 136 89 163 89 15 0 48 16 75 37 26 20 62
44 80 55 42 25 52 63 23 87 -27 22 -40 22 -66 3z"/>
<path d="M576 2042 c-15 -17 -15 -25 -4 -59 13 -44 67 -89 93 -79 9 3 20 -3
27 -14 9 -14 24 -20 50 -20 20 0 49 -6 65 -14 15 -8 45 -22 66 -31 20 -9 37
-20 37 -25 0 -6 11 -10 24 -10 14 0 28 -4 31 -10 3 -5 19 -10 34 -10 15 0 36
-9 46 -20 33 -36 77 -20 90 32 5 20 0 29 -27 49 -18 14 -49 31 -68 39 -19 8
-37 17 -40 20 -9 10 -77 40 -93 40 -8 0 -17 6 -20 13 -3 8 -30 21 -60 31 -30
9 -63 26 -73 37 -10 11 -30 19 -49 19 -17 0 -35 4 -40 9 -6 5 -24 12 -41 15
-23 5 -34 2 -48 -12z"/>
<path d="M1355 1913 c-32 -3 -48 -14 -81 -49 -40 -45 -40 -46 -38 -117 2 -39
0 -75 -2 -79 -10 -15 -13 -413 -3 -424 5 -6 5 -25 -1 -45 -16 -56 -12 -110 11
-144 l22 -31 101 1 c56 1 107 5 113 8 7 4 14 3 18 -3 3 -5 25 -7 48 -4 91 11
142 12 159 3 20 -11 116 8 138 28 18 16 41 159 30 188 -4 11 -6 43 -3 70 6 70
11 174 17 361 5 154 4 161 -18 188 -24 30 -20 30 -231 40 -55 3 -131 7 -170
10 -38 2 -88 2 -110 -1z m230 -395 c28 -13 43 -53 28 -77 -9 -15 -60 -49 -75
-50 -4 -1 -21 12 -37 28 -28 28 -30 32 -19 63 6 18 16 36 22 40 16 11 52 10
81 -4z"/>
<path d="M2492 1895 c-24 -8 -49 -12 -57 -9 -15 6 -69 -8 -125 -33 -19 -9 -55
-18 -80 -21 -25 -2 -50 -8 -56 -13 -6 -5 -29 -10 -51 -12 -22 -2 -51 -11 -63
-20 -16 -11 -28 -13 -40 -7 -22 12 -70 -29 -70 -58 0 -41 44 -45 165 -13 22 5
49 8 61 5 11 -3 26 1 32 9 7 8 22 12 37 9 14 -2 41 3 60 13 23 10 46 14 66 10
20 -5 38 -1 55 10 17 11 35 14 54 10 21 -5 41 0 70 16 34 19 40 28 40 55 0 23
-7 36 -25 48 -13 9 -26 16 -27 15 -2 -1 -22 -7 -46 -14z"/>
<path d="M594 1608 c-5 -7 -9 -30 -9 -51 -1 -32 3 -41 24 -51 14 -7 31 -11 38
-9 7 2 21 -1 33 -7 11 -6 26 -7 33 -3 13 8 33 11 130 17 32 2 61 7 64 10 4 3
12 1 20 -5 9 -8 17 -8 26 -1 6 5 41 8 75 7 69 -3 102 14 102 54 0 37 -1 37
-252 44 -97 3 -160 1 -164 -5 -3 -5 -13 -6 -23 -3 -34 14 -89 16 -97 3z"/>
<path d="M2506 1603 c-4 -5 -35 -9 -69 -10 -95 -2 -136 -3 -149 -3 -7 0 -67
-1 -133 -2 -97 -3 -126 -7 -149 -21 -24 -16 -27 -24 -22 -50 3 -17 8 -32 10
-35 9 -8 162 -7 173 1 8 6 21 4 36 -5 20 -14 25 -14 45 0 16 11 26 12 34 4 7
-7 19 -7 33 -2 14 5 27 4 34 -3 8 -8 14 -8 22 0 7 7 22 8 45 2 22 -7 40 -6 53
0 14 8 22 7 31 -4 18 -22 37 -18 67 11 20 20 24 31 19 57 -10 51 -55 85 -80
60z"/>
<path d="M1988 1388 c-35 -28 -31 -54 13 -95 22 -21 46 -38 53 -38 6 0 30 -19
54 -43 23 -23 49 -42 57 -42 8 0 19 -9 25 -20 6 -10 26 -26 44 -35 19 -9 65
-48 103 -86 37 -38 76 -69 85 -69 10 0 36 -16 57 -36 49 -44 89 -44 104 -1 13
39 -8 87 -37 87 -12 0 -29 8 -37 18 -9 9 -25 25 -35 34 -10 10 -28 26 -38 38
-11 11 -25 20 -33 20 -7 0 -31 20 -54 45 -27 29 -50 45 -65 45 -13 0 -24 4
-24 10 0 5 -13 16 -28 24 -15 8 -48 34 -72 58 -25 23 -49 42 -53 40 -5 -1 -26
11 -47 28 -42 34 -49 35 -72 18z"/>
<path d="M1035 1370 c-11 -5 -31 -9 -44 -9 -13 -1 -44 -15 -70 -32 -82 -56
-219 -129 -242 -129 -8 0 -20 -9 -27 -20 -7 -11 -21 -20 -31 -20 -11 0 -29
-12 -40 -26 -21 -26 -21 -28 -3 -58 27 -47 72 -47 151 0 34 20 64 41 67 45 3
5 14 9 24 9 11 0 27 11 36 25 9 13 25 27 36 31 11 3 45 23 75 44 30 21 61 36
69 33 8 -3 14 0 14 6 0 6 5 11 11 11 7 0 18 8 25 18 15 19 19 72 5 72 -5 0
-15 2 -23 4 -7 3 -22 1 -33 -4z"/>
<path d="M1028 1122 c-21 -9 -80 -65 -137 -131 -25 -28 -51 -51 -58 -51 -7 0
-13 -5 -13 -11 0 -12 -216 -229 -228 -229 -17 0 -34 -29 -36 -60 -3 -47 31
-71 79 -56 19 6 38 19 41 28 3 10 14 23 25 28 10 6 28 28 38 49 11 21 88 107
170 191 83 84 151 155 151 158 0 3 7 14 17 24 13 15 14 23 5 43 -12 25 -24 29
-54 17z"/>
<path d="M1967 1059 c-38 -22 -15 -81 58 -154 23 -22 48 -53 56 -69 7 -16 21
-31 29 -33 8 -3 30 -24 49 -49 18 -24 37 -44 42 -44 5 0 9 -6 9 -12 0 -7 21
-35 47 -63 26 -27 48 -56 49 -63 1 -7 23 -31 48 -53 25 -23 46 -45 46 -51 0
-21 42 -68 75 -84 33 -15 36 -15 70 6 19 12 35 29 35 39 0 21 -60 91 -78 91
-6 0 -20 17 -29 37 -10 21 -28 42 -40 49 -13 6 -36 28 -52 50 -16 21 -45 55
-65 73 -20 19 -36 40 -36 45 0 10 -14 27 -84 94 -21 20 -42 47 -47 60 -5 12
-15 22 -24 22 -8 0 -15 7 -15 15 0 8 -9 20 -20 27 -11 7 -20 18 -20 24 0 16
-43 50 -65 51 -11 1 -28 -3 -38 -8z"/>
<path d="M1162 927 c-12 -13 -22 -29 -22 -35 0 -7 -4 -12 -10 -12 -5 0 -10 -8
-10 -17 0 -9 -18 -38 -40 -64 -22 -26 -40 -57 -40 -68 0 -12 -5 -21 -10 -21
-6 0 -15 -11 -20 -25 -5 -14 -13 -25 -18 -25 -5 0 -15 -12 -23 -27 -7 -16 -21
-39 -31 -52 -10 -13 -16 -27 -13 -31 2 -4 -4 -15 -15 -25 -11 -10 -20 -23 -20
-30 0 -6 -11 -22 -25 -35 -14 -13 -24 -29 -21 -36 2 -6 -11 -26 -30 -45 -18
-18 -32 -35 -29 -37 5 -6 -43 -94 -56 -102 -5 -3 -20 -28 -35 -55 l-26 -50 23
-43 c15 -26 29 -40 37 -37 8 3 20 5 28 5 8 0 14 6 14 14 0 7 6 19 14 25 7 6
16 24 19 39 3 15 22 45 42 67 19 21 33 45 31 51 -3 7 4 20 15 30 10 9 19 23
19 31 0 16 70 123 81 123 9 0 39 58 39 75 0 7 7 18 15 25 8 7 15 20 15 28 0 9
14 30 30 47 17 17 32 41 35 53 5 28 20 56 39 72 9 7 16 21 16 31 0 11 5 19 10
19 6 0 10 8 10 18 0 10 11 29 25 42 30 28 32 60 7 83 -25 23 -45 21 -70 -6z"/>
<path d="M1780 909 c-16 -30 -6 -58 40 -116 22 -28 43 -66 47 -84 3 -19 12
-37 19 -42 18 -11 94 -146 94 -168 0 -10 9 -23 20 -29 10 -6 24 -28 30 -50 6
-21 21 -52 34 -67 34 -42 86 -138 86 -160 0 -33 91 -105 105 -83 3 5 15 10 25
10 27 0 35 39 16 75 -9 17 -16 35 -16 42 0 7 -9 17 -20 23 -14 8 -19 17 -15
30 4 12 -2 24 -17 37 -29 24 -78 95 -107 155 -13 27 -26 50 -31 53 -11 7 -80
133 -80 146 0 6 -16 29 -35 52 -19 22 -35 45 -35 49 0 5 -11 24 -24 41 -14 18
-28 44 -31 60 -12 48 -84 66 -105 26z"/>
<path d="M1321 896 c-12 -14 -28 -110 -35 -206 -2 -19 -7 -43 -11 -54 -5 -10
-4 -26 2 -35 5 -9 7 -27 3 -41 -3 -14 -5 -53 -4 -87 2 -43 -2 -65 -11 -73 -10
-8 -11 -19 -5 -34 9 -24 3 -74 -12 -93 -11 -14 -4 -117 11 -155 13 -34 47 -39
88 -13 34 20 43 51 22 72 -6 6 -8 17 -3 25 4 7 9 56 11 109 1 53 7 107 11 119
5 13 5 43 1 67 -5 24 -6 65 -4 91 15 139 23 298 15 305 -3 3 -19 8 -36 11 -22
5 -35 2 -43 -8z"/>
<path d="M1524 863 c-13 -22 -8 -186 6 -214 6 -11 8 -24 4 -30 -3 -6 -1 -28 5
-48 10 -30 25 -161 34 -288 1 -17 5 -34 9 -38 3 -3 4 -24 1 -46 -4 -25 -2 -39
6 -39 6 0 11 -11 11 -23 0 -34 35 -64 54 -48 8 7 19 10 24 7 5 -3 17 3 27 14
15 16 16 24 6 48 -7 16 -14 51 -16 78 -2 27 -5 56 -8 64 -13 40 -26 123 -22
131 8 12 -13 169 -24 183 -10 13 -23 100 -25 166 -3 78 -62 131 -92 83z"/>
</g>
</svg>
