<?xml version="1.0" standalone="no"?>
<!DOCTYPE svg PUBLIC "-//W3C//DTD SVG 20010904//EN"
 "http://www.w3.org/TR/2001/REC-SVG-20010904/DTD/svg10.dtd">
<svg version="1.0" xmlns="http://www.w3.org/2000/svg"
 width="330.000000pt" height="286.000000pt" viewBox="0 0 330.000000 286.000000"
 preserveAspectRatio="xMidYMid meet">

<g transform="translate(0.000000,286.000000) scale(0.100000,-0.100000)"
fill="#000000" stroke="none">
<path d="M220 1430 l0 -1430 1370 0 1370 0 0 1430 0 1430 -1370 0 -1370 0 0
-1430z m1130 1369 c36 0 74 0 85 0 11 -1 209 -2 440 -4 231 -1 497 -6 590 -10
94 -4 198 -8 232 -9 45 -1 67 -6 82 -20 27 -25 49 -68 57 -115 4 -20 8 -45 10
-56 16 -79 21 -395 8 -437 -2 -9 -1 -19 5 -22 5 -4 5 -21 0 -44 -4 -21 -8 -68
-8 -103 0 -35 0 -74 0 -86 -1 -13 -1 -31 -1 -40 0 -10 -2 -126 -4 -258 -2
-132 1 -248 5 -257 6 -10 5 -19 -1 -23 -13 -8 -13 -56 0 -89 5 -14 6 -35 2
-47 -4 -11 -4 -46 1 -77 4 -31 10 -167 12 -302 3 -135 6 -319 8 -410 l4 -165
-34 -52 c-33 -50 -35 -52 -102 -63 -47 -8 -152 -9 -337 -5 -454 11 -469 11
-482 1 -9 -6 -25 -5 -47 3 -23 8 -40 9 -51 3 -10 -5 -29 -6 -43 -2 -14 4 -57
6 -96 4 -218 -9 -388 -17 -445 -20 -144 -9 -240 -9 -240 -2 0 4 -7 8 -15 8
-31 0 -73 30 -79 56 -4 15 -17 34 -28 44 -18 14 -22 30 -26 96 -2 43 -8 84
-13 91 -6 6 -9 22 -7 35 3 21 -1 23 -47 25 -27 0 -55 -3 -62 -9 -8 -6 -19 -6
-32 1 -13 7 -47 9 -93 4 -40 -3 -110 -7 -156 -7 -117 0 -119 3 -121 239 0 11
1 127 2 257 2 276 0 270 95 276 31 2 80 3 107 2 28 -1 108 -2 178 -3 141 -2
156 4 131 51 -7 14 -11 29 -8 33 6 10 7 134 1 173 -3 16 -1 42 3 58 10 32 16
30 -100 28 -253 -4 -400 1 -407 14 -9 13 -11 82 -13 358 -1 108 1 201 4 207 4
5 6 64 7 130 0 87 4 129 15 151 15 28 19 30 77 31 34 1 114 4 177 7 63 2 136
5 161 5 l47 1 1 80 c2 119 33 215 75 234 12 5 52 10 90 11 38 1 77 6 87 12 10
5 24 7 31 4 7 -3 33 -1 58 4 25 5 68 7 95 5 28 -3 79 -5 115 -5z"/>
<path d="M1207 2704 c-1 -1 -31 -4 -67 -8 -166 -15 -202 -23 -229 -53 -23 -24
-26 -38 -28 -105 -3 -75 -2 -78 22 -84 14 -3 42 -3 63 2 20 4 55 7 77 6 84 -3
110 -4 115 -2 3 1 51 3 107 4 67 1 108 -3 119 -11 22 -16 23 -41 22 -428 0
-176 0 -350 0 -386 1 -47 -3 -70 -13 -79 -12 -10 -211 -15 -370 -9 -11 0 -29
-2 -40 -4 -11 -3 -31 -6 -44 -6 -22 -1 -23 -4 -17 -48 7 -51 8 -103 6 -196 -1
-32 4 -64 9 -71 6 -7 8 -16 4 -19 -7 -7 2 -8 107 -7 63 1 66 0 90 -32 14 -19
26 -48 27 -68 0 -19 4 -111 7 -205 3 -93 6 -170 6 -170 1 0 1 -228 0 -247 -2
-27 -17 -32 -119 -33 -91 -1 -96 -2 -96 -23 0 -11 -3 -24 -6 -27 -4 -3 0 -33
8 -66 7 -33 11 -64 8 -68 -3 -5 2 -11 10 -15 8 -3 15 -12 15 -20 0 -8 8 -15
18 -15 9 -1 78 -3 152 -6 74 -2 146 -5 160 -6 14 -1 44 1 68 5 27 5 47 4 56
-3 7 -6 15 -9 18 -6 3 3 88 7 189 10 101 2 194 6 206 9 13 3 25 0 29 -5 4 -7
10 -7 18 0 12 10 232 8 243 -3 3 -3 11 -1 18 4 7 5 24 6 41 2 27 -7 388 -9
409 -1 6 1 20 0 32 -4 28 -10 101 28 108 57 3 11 2 41 -3 66 -5 26 -6 55 -2
65 4 11 5 55 2 100 -9 152 -9 290 -1 311 4 12 5 25 1 29 -20 20 -17 1065 4
1275 3 30 5 64 4 75 0 11 0 52 0 90 0 39 0 90 0 115 -1 52 -8 164 -11 168 -2
3 -5 13 -14 50 -4 19 -14 36 -21 39 -8 3 -14 11 -14 18 0 7 -8 16 -17 20 -24
10 -210 17 -418 16 -93 -1 -217 -1 -275 0 -58 0 -152 0 -210 0 -196 -1 -235
-1 -408 2 -95 2 -174 2 -175 1z m1127 -398 l131 -1 3 -26 c5 -43 -40 -68 -108
-62 -30 2 -59 4 -65 4 -5 0 -80 -3 -165 -5 -85 -2 -174 -7 -197 -10 -23 -3
-45 -1 -48 5 -4 5 -11 6 -17 3 -16 -10 -179 -7 -190 4 -5 5 -10 22 -11 38 -2
34 -17 31 198 39 210 7 296 13 302 18 3 3 12 3 21 0 8 -4 74 -7 146 -7z m159
-319 c18 -56 -20 -68 -213 -67 -41 0 -83 0 -92 0 -47 0 -69 -3 -74 -12 -3 -5
-17 -2 -31 7 -19 13 -31 15 -47 8 -23 -11 -308 -9 -325 1 -17 11 -13 46 7 52
9 3 24 8 32 11 8 2 94 6 190 8 344 7 481 12 487 19 17 17 57 0 66 -27z m-8
-294 c24 -30 24 -31 7 -54 -18 -21 -24 -22 -153 -20 -74 1 -153 2 -176 1 -24
0 -51 0 -60 0 -10 0 -69 2 -130 4 -62 1 -116 5 -119 9 -3 3 -16 2 -28 -3 -12
-4 -52 -3 -91 4 -61 10 -70 14 -73 34 -4 28 5 31 98 37 106 7 122 7 155 1 16
-3 34 -1 41 5 8 6 19 7 29 2 8 -5 41 -6 73 -3 31 4 116 6 189 5 73 -1 137 1
142 5 27 16 73 4 96 -27z m-88 -569 c31 -23 33 -29 33 -83 0 -64 9 -74 58 -66
29 6 52 -8 70 -42 21 -38 11 -247 -12 -270 -3 -3 -20 -7 -38 -8 -18 -1 -44 -5
-57 -10 -20 -6 -23 -12 -18 -42 8 -47 -15 -100 -47 -113 -24 -9 -126 -8 -606
6 -85 2 -183 5 -217 5 -34 0 -65 4 -68 10 -4 5 -11 7 -16 3 -18 -11 -46 25
-59 74 -6 26 -14 54 -18 62 -3 8 -4 20 -3 25 5 17 1 217 -4 278 -3 31 -3 63 1
69 5 7 9 26 9 42 1 16 7 32 13 34 7 2 12 10 12 18 0 8 7 14 15 14 8 0 15 3 15
8 0 4 87 7 193 7 105 -1 215 2 242 5 28 3 144 4 259 3 207 -3 210 -4 243 -29z"/>
<path d="M1617 1063 c-1 -1 -22 -3 -47 -5 -25 -2 -55 -9 -66 -16 -21 -11 -48
-65 -38 -75 3 -2 7 -76 9 -163 3 -88 9 -172 13 -189 8 -29 11 -30 78 -36 38
-3 76 -2 85 2 9 5 19 5 23 2 8 -9 58 -13 69 -6 8 5 123 7 130 2 1 -1 79 -3
172 -5 94 -2 184 -5 200 -8 43 -6 86 4 93 23 3 9 10 19 16 23 7 5 10 59 8 160
-1 84 -2 172 -2 195 1 23 -7 54 -17 71 l-18 30 -354 -2 c-194 0 -353 -2 -354
-3z m615 -67 c20 12 27 -31 29 -178 2 -139 -7 -157 -84 -157 -42 0 -53 4 -54
17 -10 102 -11 317 -3 322 6 4 32 3 58 -1 26 -4 50 -5 54 -3z m-573 -177 l0
-177 -31 9 c-17 4 -34 6 -39 4 -4 -3 -14 1 -21 9 -11 10 -14 49 -14 167 l1
153 25 6 c14 3 37 6 52 6 l27 0 0 -177z m174 168 c2 -7 5 -84 5 -172 l2 -160
-54 -2 -54 -3 1 173 0 174 48 1 c28 0 49 -4 52 -11z m195 -157 l1 -170 -57 0
-58 0 1 163 0 162 50 6 c28 3 53 6 57 7 3 1 6 -74 6 -168z"/>
<path d="M1296 2372 c-3 -2 -208 -6 -456 -7 -248 -1 -452 -4 -455 -6 -8 -8
-17 -269 -16 -469 1 -189 5 -249 19 -251 26 -5 302 -3 302 2 0 4 17 3 38 -1
46 -8 361 -4 384 5 9 4 25 3 35 -2 20 -10 82 -9 124 2 16 4 30 2 33 -4 12 -18
26 -12 37 15 12 33 19 277 8 295 -4 7 -5 17 -2 22 9 15 9 309 0 354 -5 28 -14
42 -27 46 -10 3 -21 2 -24 -1z m-44 -89 c15 -13 18 -33 18 -103 0 -80 -9 -110
-31 -110 -16 0 -39 33 -39 55 0 37 -18 39 -54 7 -18 -16 -72 -55 -121 -87 -91
-60 -89 -59 -115 -13 -12 20 4 38 65 77 35 23 165 121 165 126 0 0 -19 2 -42
4 -45 2 -58 13 -58 47 0 19 6 21 67 23 37 1 69 4 71 6 6 6 56 -15 74 -32z
m-457 -330 c17 -25 17 -27 -1 -40 -10 -7 -22 -13 -26 -13 -8 0 -19 -8 -51 -36
-7 -6 -22 -14 -34 -18 -12 -4 -24 -14 -27 -22 -3 -8 -10 -12 -16 -9 -5 3 -10
1 -10 -5 0 -6 -4 -8 -10 -5 -5 3 -10 1 -10 -4 0 -6 -6 -11 -14 -11 -14 0 -30
-29 -21 -38 3 -3 5 -1 5 4 0 6 16 8 35 6 25 -3 35 -9 35 -22 0 -24 -25 -33
-85 -31 -27 1 -58 2 -67 2 -30 1 -41 28 -42 107 -2 56 2 81 13 92 11 11 15 12
19 2 2 -7 8 -10 13 -6 5 3 9 -16 9 -42 l0 -47 23 19 c12 11 35 26 52 34 16 8
37 23 47 33 10 9 24 17 32 17 8 0 16 4 18 8 4 10 70 50 84 51 7 1 20 -11 29
-26z"/>
<path d="M485 1122 c-3 -4 -23 -5 -43 -3 l-38 2 2 -73 c1 -40 4 -137 6 -215 2
-78 7 -145 11 -149 3 -4 4 -32 0 -64 -7 -70 8 -105 40 -93 23 8 169 12 422 14
83 0 159 3 171 5 21 5 21 10 22 275 l0 269 -31 2 c-18 1 -45 3 -62 4 -29 2
-178 6 -220 5 -26 0 -107 5 -120 9 -5 1 -21 1 -35 1 -14 -1 -46 2 -72 7 -26 5
-50 7 -53 4z m478 -133 c9 -10 17 -23 17 -29 0 -5 4 -10 8 -10 4 0 7 -40 7
-89 -1 -96 -5 -104 -87 -192 -29 -31 -38 -35 -73 -31 -57 6 -80 39 -77 112 5
102 7 115 17 122 6 4 10 11 11 15 2 15 17 48 30 63 58 65 64 70 97 63 17 -3
40 -14 50 -24z m-233 -4 c0 -14 -4 -25 -9 -25 -22 0 -97 -87 -113 -131 -6 -14
-1 -15 30 -8 30 7 43 4 69 -14 54 -36 40 -106 -31 -160 -61 -47 -115 -32 -142
40 -10 26 -17 57 -16 68 5 35 35 109 54 134 10 13 18 27 18 32 0 5 19 26 43
48 51 49 97 56 97 16z"/>
<path d="M887 923 c-21 -24 -40 -73 -38 -101 0 -12 -6 -25 -14 -28 -10 -4 -15
-20 -15 -50 0 -56 19 -58 66 -8 35 37 41 60 35 149 -3 50 -13 61 -34 38z"/>
<path d="M627 732 c-19 -21 -22 -42 -7 -42 13 0 50 37 50 50 0 16 -26 11 -43
-8z"/>
</g>
</svg>
