<?xml version="1.0" standalone="no"?>
<!DOCTYPE svg PUBLIC "-//W3C//DTD SVG 20010904//EN"
 "http://www.w3.org/TR/2001/REC-SVG-20010904/DTD/svg10.dtd">
<svg version="1.0" xmlns="http://www.w3.org/2000/svg"
 width="334.000000pt" height="290.000000pt" viewBox="0 0 334.000000 290.000000"
 preserveAspectRatio="xMidYMid meet">

<g transform="translate(0.000000,290.000000) scale(0.100000,-0.100000)"
fill="#000000" stroke="none">
<path d="M1620 2859 c-13 -6 -27 -14 -30 -18 -8 -12 -119 -83 -180 -115 -30
-16 -62 -34 -70 -40 -8 -6 -31 -20 -50 -30 -19 -11 -48 -30 -63 -43 -16 -13
-35 -23 -43 -23 -13 0 -62 -26 -74 -40 -6 -7 -164 -100 -252 -150 -32 -17 -58
-36 -58 -41 0 -5 -8 -9 -18 -9 -11 0 -27 -9 -37 -20 -10 -11 -23 -19 -29 -18
-16 3 -105 -55 -106 -69 0 -6 -8 -13 -17 -15 -22 -4 -24 -20 -27 -253 -2 -128
1 -205 7 -213 8 -10 7 -16 0 -20 -7 -5 -11 -66 -11 -182 0 -96 -1 -267 -3
-380 -3 -223 3 -254 53 -277 135 -63 328 -160 347 -175 13 -10 32 -18 41 -18
10 0 23 -6 29 -13 6 -8 30 -19 53 -26 24 -7 50 -19 58 -26 8 -7 40 -24 70 -38
30 -13 62 -28 70 -31 8 -4 53 -28 100 -54 l85 -47 23 -70 c13 -38 30 -77 38
-86 8 -8 14 -20 14 -26 0 -6 13 -25 29 -42 16 -17 26 -31 23 -31 -11 0 54 -56
105 -90 26 -18 54 -33 61 -33 6 0 12 -3 12 -7 0 -28 198 -72 224 -51 11 9 16
9 21 1 4 -7 18 -9 34 -5 14 4 50 11 79 15 58 10 132 39 132 52 0 4 5 8 11 8
23 0 159 117 159 137 0 3 11 20 23 37 35 45 74 138 69 160 -2 4 3 15 9 23 8 9
12 45 10 100 -2 92 -12 153 -37 211 -8 20 -12 42 -10 49 3 6 47 39 98 72 51
33 107 71 124 85 47 38 46 32 69 626 3 80 9 217 15 306 5 88 7 170 3 182 -3
12 0 28 6 36 8 9 8 22 2 38 -5 13 -5 31 0 39 17 31 -4 60 -77 110 -40 27 -76
49 -80 49 -15 0 -260 126 -267 138 -4 6 -16 12 -25 12 -10 0 -34 11 -54 25
-20 14 -43 25 -50 26 -7 0 -26 9 -43 19 -16 11 -46 27 -65 36 -99 48 -268 132
-370 185 -122 63 -122 63 -160 48z m82 -136 c18 -9 41 -20 51 -25 9 -5 78 -40
152 -78 75 -39 143 -70 153 -70 9 0 23 -9 30 -20 7 -11 19 -20 28 -20 9 0 28
-8 42 -18 15 -10 47 -27 72 -37 25 -11 81 -39 125 -62 44 -24 126 -66 183 -94
90 -44 123 -69 93 -69 -10 0 -89 -47 -175 -102 -22 -15 -63 -38 -91 -52 -27
-13 -67 -40 -88 -59 -20 -19 -53 -42 -72 -51 -19 -9 -35 -21 -35 -25 0 -5 -15
-15 -32 -22 -18 -7 -60 -31 -93 -54 -108 -73 -291 -185 -302 -185 -11 0 -104
43 -173 79 -19 11 -38 17 -41 15 -4 -2 -12 3 -19 11 -7 8 -21 15 -31 15 -35 0
-20 19 56 70 99 67 145 108 145 130 0 17 -10 27 -89 88 -48 37 -213 119 -250
124 -36 5 -114 -30 -209 -93 -24 -16 -47 -29 -53 -29 -5 0 -18 -9 -30 -21 -30
-30 -91 -37 -115 -13 -11 11 -63 41 -117 68 -53 27 -97 52 -97 57 0 9 55 43
129 81 29 15 61 34 70 42 9 8 70 45 136 81 66 37 139 80 163 96 24 16 47 29
51 29 5 0 11 7 15 15 3 8 15 15 26 15 11 0 20 5 20 10 0 6 7 10 15 10 8 0 50
23 92 50 42 28 83 50 90 50 7 0 21 8 32 18 18 17 91 61 103 62 3 0 21 -8 40
-17z m992 -589 c4 -9 4 -31 1 -48 -4 -29 -12 -207 -20 -506 -2 -69 -7 -186
-10 -260 -4 -74 -7 -156 -6 -182 2 -51 -2 -57 -79 -113 -23 -16 -49 -38 -58
-47 -9 -10 -24 -18 -33 -18 -9 0 -22 -7 -29 -15 -19 -23 -36 -18 -77 20 -87
81 -137 116 -170 120 -12 1 -29 7 -36 14 -8 6 -36 14 -63 17 -27 4 -57 11 -66
15 -10 5 -19 5 -23 0 -3 -5 -27 -8 -53 -6 -29 3 -71 -3 -111 -15 -35 -11 -67
-20 -71 -20 -4 0 -8 57 -7 128 1 70 0 145 -2 167 -4 65 8 168 24 192 9 13 37
34 63 48 68 37 128 73 190 114 30 20 62 40 71 46 9 5 30 19 46 31 17 11 49 31
73 44 23 13 42 27 42 30 0 7 45 30 59 30 5 0 6 -30 4 -67 -6 -92 3 -102 56
-68 23 16 43 37 46 49 2 12 9 55 16 96 11 74 29 110 55 110 7 0 17 6 21 13 10
15 35 31 86 54 20 10 37 23 37 30 0 19 17 16 24 -3z m-1264 -64 c52 -27 98
-50 102 -50 4 0 8 -6 8 -14 0 -16 -38 -42 -177 -117 -55 -31 -77 -53 -87 -89
-4 -14 -9 -106 -13 -205 -3 -99 -9 -190 -14 -202 -11 -29 -25 -29 -95 2 -31
14 -62 25 -69 25 -6 0 -22 9 -35 20 -22 19 -23 25 -25 227 -1 163 2 214 13
238 22 45 103 119 176 160 36 20 68 41 72 46 11 19 53 7 144 -41z m-691 -29
c20 -11 43 -22 51 -25 8 -3 22 -10 30 -15 8 -4 38 -20 65 -33 l50 -25 -1 -206
c-1 -113 -5 -223 -9 -246 -6 -37 -4 -44 23 -68 46 -43 55 -49 85 -57 15 -3 65
-29 111 -56 45 -28 87 -50 93 -50 5 0 25 -7 42 -16 31 -16 34 -15 53 4 23 23
28 67 31 305 1 84 6 157 10 164 5 8 36 -4 102 -38 52 -27 101 -49 110 -49 8 0
15 -3 15 -7 0 -5 18 -17 41 -27 l40 -20 -2 -71 c-1 -40 1 -77 5 -84 4 -6 5
-15 1 -20 -4 -7 -14 -135 -17 -216 0 -5 2 -38 5 -73 5 -68 -7 -97 -77 -172
-55 -59 -111 -160 -111 -202 0 -21 -3 -38 -6 -38 -4 0 -10 -18 -14 -40 -7 -44
-22 -50 -65 -25 -56 32 -256 130 -265 129 -5 0 -24 11 -42 23 -17 13 -38 23
-46 23 -9 0 -17 4 -19 8 -1 4 -33 21 -70 37 -38 15 -68 32 -68 37 0 4 -6 8
-14 8 -11 0 -127 58 -188 95 -16 10 -18 37 -17 305 0 267 5 751 8 758 3 7 27
0 60 -17z m1432 -1058 c55 -27 122 -75 151 -108 24 -28 79 -123 84 -145 3 -14
11 -41 17 -60 18 -54 -9 -280 -34 -280 -5 0 -9 -8 -9 -18 0 -10 -11 -29 -25
-42 -14 -13 -25 -29 -25 -37 0 -7 -4 -13 -9 -13 -5 0 -28 -16 -51 -35 -23 -19
-72 -49 -108 -67 -58 -28 -79 -33 -152 -34 -59 -1 -92 2 -108 12 -12 8 -27 12
-32 9 -6 -4 -17 1 -26 10 -9 9 -23 14 -31 11 -7 -3 -16 1 -19 9 -4 8 -11 15
-16 15 -29 0 -168 158 -168 191 0 5 -8 21 -17 36 -13 19 -18 53 -20 132 -3
109 -4 106 48 216 27 59 99 140 135 154 17 6 39 20 49 31 10 11 28 20 40 20
11 0 25 4 31 9 14 14 60 19 150 17 67 -2 91 -7 145 -33z"/>
<path d="M2190 801 c0 -7 -8 -11 -17 -9 -11 2 -17 -2 -15 -11 2 -11 0 -12 -11
-3 -10 9 -25 -5 -70 -69 -31 -44 -57 -83 -57 -87 0 -4 -20 -29 -44 -57 l-44
-50 -40 23 c-73 41 -133 23 -124 -37 3 -20 15 -33 50 -51 26 -13 55 -30 64
-38 9 -8 21 -11 26 -8 6 3 13 -1 16 -10 5 -12 13 -14 34 -9 28 7 72 42 72 57
0 5 5 14 10 21 41 47 150 203 150 213 0 6 6 14 14 17 24 10 28 66 6 94 -11 14
-20 20 -20 14z"/>
</g>
</svg>
