<?xml version="1.0" standalone="no"?>
<!DOCTYPE svg PUBLIC "-//W3C//DTD SVG 20010904//EN"
 "http://www.w3.org/TR/2001/REC-SVG-20010904/DTD/svg10.dtd">
<svg version="1.0" xmlns="http://www.w3.org/2000/svg"
 width="330.000000pt" height="286.000000pt" viewBox="0 0 330.000000 286.000000"
 preserveAspectRatio="xMidYMid meet">

<g transform="translate(0.000000,286.000000) scale(0.100000,-0.100000)"
fill="#000000" stroke="none">
<path d="M1770 2785 c-8 -10 -17 -12 -29 -6 -10 6 -23 6 -32 0 -9 -4 -27 -6
-40 -2 -48 12 -132 15 -153 5 -42 -20 -57 -21 -98 -7 -25 8 -48 10 -57 6 -36
-19 -184 -31 -256 -20 -29 4 -58 3 -69 -3 -10 -6 -51 -10 -90 -9 -48 1 -79 -4
-91 -13 -14 -10 -35 -12 -70 -9 -53 5 -60 1 -124 -80 -24 -30 -42 -173 -45
-359 l-1 -57 -45 -5 c-25 -3 -96 -4 -158 -3 -123 3 -133 -1 -146 -55 -11 -46
13 -53 182 -53 l151 0 7 -63 c3 -34 3 -74 0 -90 -4 -15 -8 -107 -9 -204 -1
-97 -5 -180 -9 -183 -4 -4 -3 -16 2 -26 7 -11 6 -27 0 -44 -7 -17 -7 -33 0
-45 23 -43 -14 -61 -123 -64 -33 0 -63 2 -69 5 -5 3 -11 38 -13 77 -2 39 -6
76 -10 81 -3 6 -6 36 -6 68 0 32 -4 72 -9 88 -8 26 -20 172 -24 283 -1 25 -9
39 -29 54 -18 13 -32 17 -38 11 -10 -10 -20 -139 -11 -148 3 -3 7 -48 9 -100
1 -52 6 -112 12 -132 5 -21 9 -45 9 -53 0 -8 3 -73 6 -145 3 -71 6 -133 6
-136 0 -3 11 -18 24 -31 21 -23 27 -25 67 -18 25 5 49 4 55 -1 6 -5 14 -6 17
-3 12 13 82 13 109 1 24 -10 28 -18 28 -50 0 -21 -5 -47 -10 -57 -7 -13 -7
-21 0 -25 12 -7 13 -62 2 -69 -5 -3 -7 -41 -4 -84 3 -53 1 -82 -7 -86 -8 -5
-8 -13 0 -28 12 -21 17 -116 8 -133 -5 -10 -4 -32 1 -37 4 -5 8 -48 14 -178 6
-131 19 -207 42 -252 8 -14 14 -34 14 -43 0 -15 18 -63 39 -105 4 -8 34 -28
67 -44 44 -22 75 -30 124 -31 37 -1 75 -7 85 -12 12 -6 44 -8 80 -3 71 8 217
6 234 -4 6 -4 16 -4 22 -1 5 4 54 8 108 9 54 2 102 5 107 8 16 10 528 0 584
-12 63 -12 56 -12 138 -2 35 4 94 5 130 1 62 -7 71 -5 121 22 30 16 63 29 73
29 23 0 69 97 66 138 -1 15 2 33 6 40 4 8 10 90 12 184 3 94 8 176 12 182 3 6
6 48 4 93 -1 77 0 83 24 102 14 11 38 22 54 26 16 3 34 13 41 21 6 8 18 14 25
14 8 0 33 13 56 30 22 16 48 30 57 30 9 0 33 9 54 20 20 11 45 20 56 20 10 0
24 7 31 15 7 8 18 15 25 15 18 0 103 39 110 50 3 6 18 10 33 10 43 1 62 22 62
69 0 46 -6 49 -58 22 -86 -45 -145 -71 -160 -71 -10 0 -30 -9 -47 -20 -16 -11
-37 -20 -45 -20 -8 0 -56 -20 -107 -45 -50 -25 -98 -45 -105 -45 -8 0 -30 -14
-50 -30 -20 -17 -39 -27 -41 -23 -7 10 -1 63 8 86 4 10 4 32 0 50 -3 18 -8 69
-10 113 l-4 82 37 6 c20 4 53 9 72 12 19 4 40 11 47 16 7 5 17 7 23 3 6 -4 19
0 28 8 9 8 27 18 40 21 12 4 22 14 22 22 0 8 4 14 10 14 26 0 111 97 147 168
21 42 38 79 39 82 0 3 6 25 13 49 10 37 10 46 -2 58 -10 10 -12 25 -7 53 5 30
3 47 -11 70 -11 17 -18 34 -17 38 1 4 -4 20 -10 35 -7 16 -12 35 -12 43 0 8
-18 33 -40 56 -22 23 -42 49 -45 57 -3 9 -19 25 -37 36 -18 11 -48 30 -68 42
-19 12 -41 22 -48 23 -7 0 -26 10 -41 21 -16 12 -34 19 -39 15 -6 -3 -33 -1
-60 5 -45 11 -51 15 -55 43 -2 18 2 41 11 54 13 19 13 28 4 43 -8 13 -9 25 -3
37 5 10 11 47 12 82 2 57 -2 73 -32 130 -31 58 -40 67 -98 97 -52 27 -78 34
-125 34 -34 1 -69 5 -79 11 -10 5 -37 10 -60 12 -23 1 -50 6 -61 11 -10 5 -26
4 -35 -1 -17 -11 -161 -9 -201 1 -14 4 -63 8 -110 9 -47 1 -90 5 -96 9 -7 4
-17 0 -24 -8z m599 -130 c48 -2 94 -6 103 -10 24 -9 69 -82 74 -119 3 -17 2
-91 -2 -163 l-6 -133 -39 0 c-48 0 -76 -12 -168 -75 -72 -48 -121 -99 -121
-124 0 -7 -9 -24 -20 -38 -22 -28 -55 -128 -51 -155 1 -9 -2 -19 -6 -21 -11
-7 -8 -56 7 -122 7 -27 13 -59 15 -71 4 -28 29 -74 54 -101 12 -12 21 -27 21
-33 0 -12 127 -135 139 -135 3 0 42 -18 86 -40 l80 -40 -1 -100 c-1 -55 -4
-112 -9 -128 -4 -17 -3 -33 5 -42 9 -11 10 -18 1 -29 -6 -8 -11 -18 -10 -22 1
-5 1 -35 0 -66 -1 -45 -4 -58 -16 -58 -9 0 -18 -7 -21 -15 -4 -8 -14 -15 -24
-15 -10 0 -24 -7 -31 -16 -7 -9 -22 -20 -34 -25 -11 -5 -33 -18 -50 -29 -16
-11 -36 -23 -44 -26 -7 -4 -36 -22 -63 -41 -28 -18 -58 -33 -67 -33 -9 0 -25
-6 -36 -13 -60 -40 -195 -44 -215 -7 -5 10 -6 20 -2 24 3 4 5 22 4 41 -2 18 1
36 7 40 6 3 11 16 11 27 0 12 6 29 14 37 8 9 26 45 40 80 14 35 37 79 52 98
14 19 27 40 28 46 1 7 9 23 18 37 22 34 25 178 4 217 -30 59 -116 112 -148 92
-7 -5 -26 -8 -43 -7 -16 0 -47 -6 -67 -15 -20 -8 -39 -13 -42 -10 -3 3 -25 -4
-49 -16 -24 -11 -53 -21 -65 -21 -11 0 -23 -4 -26 -9 -3 -5 -19 -11 -36 -13
l-31 -5 7 46 c3 25 10 50 15 56 5 5 9 15 9 23 0 8 13 33 28 56 15 22 36 58 46
79 9 21 24 41 32 44 8 3 14 9 14 15 0 5 11 24 25 42 14 18 25 38 25 43 0 6 15
34 34 62 19 28 40 67 46 87 11 34 10 147 -1 159 -14 13 -136 7 -164 -9 -16 -9
-35 -16 -41 -16 -13 0 -102 -48 -124 -66 -96 -82 -96 -82 -78 -100 17 -17 21
-15 93 35 93 65 205 113 244 105 27 -6 29 -8 24 -48 -3 -22 -12 -48 -19 -57
-8 -8 -14 -21 -14 -28 0 -7 -19 -39 -42 -73 -24 -33 -57 -82 -74 -109 -17 -27
-38 -57 -47 -67 -9 -10 -17 -26 -17 -34 0 -9 -7 -21 -14 -28 -8 -6 -20 -28
-27 -48 -6 -20 -18 -47 -26 -60 -7 -12 -11 -27 -8 -33 4 -5 1 -16 -5 -24 -7
-9 -9 -23 -4 -37 4 -13 9 -30 10 -38 2 -8 11 -20 20 -27 24 -17 113 -17 133 1
9 7 43 21 76 30 33 10 69 22 80 28 11 6 50 13 86 16 65 4 67 4 85 -24 17 -25
23 -65 24 -143 0 -14 -8 -36 -17 -50 -40 -59 -154 -283 -148 -289 3 -3 -2 -16
-10 -29 -9 -13 -13 -28 -10 -34 4 -5 3 -18 -1 -27 -23 -51 -2 -118 46 -152 48
-34 118 -33 224 2 87 30 164 66 196 93 8 7 33 22 55 34 22 12 58 32 80 45 82
49 78 57 77 -174 0 -140 -4 -214 -13 -232 -9 -21 -9 -31 -1 -41 15 -17 -4 -35
-68 -65 -52 -24 -237 -36 -312 -20 -33 7 -264 18 -388 19 -8 0 -39 -5 -69 -10
-35 -7 -59 -7 -66 -1 -8 7 -23 6 -43 -1 -19 -7 -42 -7 -64 -1 -19 5 -46 5 -63
0 -35 -10 -484 -16 -565 -7 -93 10 -120 40 -120 133 0 18 -4 36 -10 42 -8 8
-26 144 -29 214 -4 108 -14 237 -22 285 -6 36 -8 132 -4 240 8 247 6 230 35
228 97 -7 374 3 411 16 l36 12 2 177 c0 97 1 220 1 272 0 144 1 227 3 310 3
97 -13 120 -84 120 -27 0 -59 5 -73 11 -14 7 -33 8 -43 4 -22 -8 -230 -15
-259 -8 -20 4 -22 10 -19 61 1 31 3 57 5 57 1 0 3 29 4 65 5 99 14 125 57 164
41 38 44 38 179 41 30 1 68 7 84 13 16 7 36 10 45 8 9 -3 57 -7 108 -10 68 -3
96 -1 110 9 21 16 76 19 101 6 11 -6 38 -5 70 1 38 8 60 8 77 0 15 -7 27 -8
30 -2 6 9 51 11 210 10 169 -1 323 2 390 10 39 4 79 5 89 2 11 -2 58 -6 105
-7z m168 -655 c-3 -83 -1 -153 4 -156 5 -3 4 -14 -2 -25 -5 -11 -7 -30 -3 -42
4 -12 6 -44 6 -72 -3 -100 -13 -260 -17 -272 -2 -7 0 -13 5 -13 6 0 10 -7 10
-15 0 -19 -20 -19 -45 -1 -11 8 -25 12 -32 9 -18 -7 -103 60 -160 126 -54 62
-83 119 -83 162 0 15 -4 30 -9 34 -13 7 -6 94 13 159 15 51 88 156 109 156 5
0 36 18 68 40 32 22 67 40 76 40 10 0 25 5 33 10 8 5 19 10 23 10 4 0 6 -68 4
-150z m200 120 c12 0 37 -9 55 -20 18 -11 43 -20 56 -20 13 0 22 -6 22 -15 0
-9 10 -20 23 -25 27 -11 67 -45 67 -57 0 -4 9 -14 19 -20 11 -7 22 -26 26 -42
4 -17 11 -33 16 -36 5 -4 9 -17 9 -29 0 -13 7 -29 15 -36 10 -8 12 -17 6 -23
-6 -6 -5 -20 1 -39 21 -60 -11 -168 -70 -233 -18 -19 -32 -39 -32 -45 0 -5 -5
-10 -12 -10 -6 0 -21 -8 -32 -18 -12 -10 -46 -28 -76 -41 -30 -13 -63 -27 -72
-32 -25 -13 -55 -11 -65 4 -8 13 -12 55 -11 122 0 22 0 51 -1 65 -1 14 -3 70
-4 125 -1 55 -5 105 -10 112 -4 6 -1 30 6 51 10 29 12 54 5 89 -5 26 -8 53 -8
58 2 35 9 72 14 86 4 9 6 20 5 25 -4 21 2 27 13 16 7 -7 22 -12 35 -12z
m-1670 -25 c9 -28 11 -155 3 -160 -8 -5 -7 -36 3 -52 4 -6 5 -62 2 -125 -3
-62 -6 -159 -5 -216 0 -101 0 -103 -26 -112 -14 -6 -51 -9 -82 -8 -31 1 -77
-1 -102 -5 -74 -10 -113 -10 -142 -2 -26 7 -28 12 -30 59 0 28 -1 57 0 65 9
182 16 357 17 436 2 131 2 133 23 138 9 2 88 4 175 3 148 -1 158 -2 164 -21z"/>
<path d="M920 978 c-32 -17 -38 -58 -11 -82 17 -15 23 -17 36 -6 10 8 28 10
53 6 20 -4 93 -9 162 -12 69 -2 132 -4 140 -4 8 -1 31 0 50 3 41 4 122 -11
131 -25 8 -12 4 -66 -5 -75 -9 -9 -7 -56 4 -73 6 -10 4 -22 -6 -38 -11 -17
-12 -27 -5 -36 6 -7 8 -16 4 -20 -4 -4 -6 -51 -5 -106 2 -61 -2 -101 -8 -105
-8 -5 -7 -11 1 -21 14 -17 12 -17 -111 -14 -46 1 -92 6 -102 11 -12 6 -25 6
-37 0 -10 -6 -21 -8 -24 -5 -2 3 -50 5 -106 6 -61 1 -104 5 -110 12 -14 19
-19 52 -10 69 6 9 5 18 0 22 -6 3 -8 12 -5 20 4 8 7 81 8 162 l1 148 -27 3
c-18 2 -30 -3 -37 -16 -8 -16 -22 -203 -25 -357 -1 -27 -4 -55 -9 -62 -9 -14
5 -54 24 -70 19 -14 146 -32 157 -21 4 4 30 5 58 0 27 -4 130 -8 230 -7 191 0
221 7 209 46 -3 9 -2 20 3 23 5 3 8 65 7 138 -1 73 2 141 7 150 5 10 4 35 -1
59 -7 29 -6 47 2 60 9 14 9 24 1 37 -6 10 -8 29 -3 45 4 16 5 35 2 43 -3 8 0
20 6 27 8 10 7 18 -2 30 -11 16 -51 18 -222 16 -11 0 -45 2 -75 5 -30 4 -98 8
-150 10 -52 3 -113 7 -135 11 -25 3 -49 1 -65 -7z"/>
</g>
</svg>
