<svg width="222" height="36" viewBox="0 0 222 36" fill="none" xmlns="http://www.w3.org/2000/svg">
  <g clip-path="url(#clip0_8555_354)">
  <path d="M206.713 31.6282L206.773 31.6265H206.652L206.713 31.6282Z" fill="#FAF4F2"/>
  <path d="M192.434 35.9999C190.855 35.9993 189.312 35.5307 188.001 34.6533C186.688 33.776 185.666 32.5292 185.062 31.0707C184.458 29.6122 184.301 28.0075 184.609 26.4595C184.918 24.9114 185.678 23.4895 186.794 22.3735C187.911 21.2575 189.333 20.4976 190.881 20.1898C192.429 19.882 194.033 20.0402 195.491 20.6443C196.95 21.2485 198.197 22.2714 199.073 23.5838C199.95 24.8963 200.418 26.4393 200.418 28.0178C200.417 30.1348 199.575 32.1645 198.078 33.6612C196.581 35.1578 194.551 35.999 192.434 35.9999ZM192.434 24.705C191.779 24.7063 191.139 24.9017 190.595 25.2666C190.051 25.6314 189.627 26.1493 189.377 26.7549C189.127 27.3605 189.063 28.0265 189.191 28.6688C189.32 29.311 189.636 29.9008 190.1 30.3635C190.564 30.8263 191.154 31.1412 191.796 31.2684C192.439 31.3957 193.105 31.3296 193.71 31.0786C194.315 30.8276 194.832 30.4028 195.196 29.8581C195.56 29.3133 195.754 28.6729 195.754 28.0178C195.752 27.1386 195.401 26.2961 194.779 25.675C194.157 25.0539 193.313 24.7051 192.434 24.705Z" fill="#FAF4F2"/>
  <path d="M192.432 7.22062e-06C191.326 0.000649863 190.221 0.0659982 189.121 0.195735V5.24698C192.389 4.77158 195.721 5.0049 198.89 5.93111C202.059 6.85732 204.992 8.45467 207.489 10.6148C209.987 12.7749 211.99 15.4472 213.363 18.45C214.736 21.4529 215.446 24.7161 215.446 28.0179C215.449 29.127 215.368 30.2347 215.205 31.3317H220.258C220.729 27.3997 220.36 23.4125 219.176 19.6335C217.992 15.8544 216.021 12.3694 213.392 9.40838C210.761 6.44739 207.534 4.07784 203.921 2.45606C200.308 0.834271 196.392 -0.00283643 192.432 7.22062e-06Z" fill="#FAF4F2"/>
  <path d="M192.432 9.83447C191.322 9.8357 190.213 9.93873 189.121 10.1423V15.2651C191.069 14.759 193.108 14.7058 195.08 15.1097C197.052 15.5136 198.905 16.3637 200.498 17.5948C202.09 18.826 203.379 20.4057 204.267 22.2124C205.154 24.0192 205.616 26.0052 205.617 28.0181C205.616 29.136 205.474 30.2494 205.194 31.3319H210.316C210.517 30.2386 210.617 29.1295 210.618 28.0181C210.612 23.1969 208.695 18.5747 205.285 15.1658C201.876 11.7568 197.253 9.83958 192.432 9.83447Z" fill="#FAF4F2"/>
  <path d="M97.2028 9.9248H93.2579C91.1166 9.92718 89.0639 10.7789 87.5497 12.2929C86.0356 13.8069 85.1845 15.8597 85.1816 18.0008V31.5886H90.7883V18.0008C90.789 17.3461 91.0496 16.7186 91.5126 16.2558C91.9756 15.793 92.6034 15.5327 93.2579 15.5322H97.2028V9.9248Z" fill="#FAF4F2"/>
  <path d="M109.318 25.9821C108.28 25.9822 107.264 25.6742 106.4 25.0973C105.536 24.5203 104.863 23.7002 104.466 22.7405C104.068 21.7809 103.964 20.725 104.167 19.7062C104.369 18.6875 104.869 17.7517 105.603 17.0172C106.338 16.2826 107.274 15.7824 108.293 15.5796C109.311 15.377 110.367 15.4808 111.327 15.8783C112.286 16.2757 113.107 16.9488 113.684 17.8124C114.261 18.6759 114.569 19.6913 114.57 20.73C114.567 22.1223 114.014 23.4572 113.03 24.4418C112.045 25.4264 110.71 25.9803 109.318 25.9821ZM109.318 9.87306C107.66 9.8709 106.023 10.2485 104.534 10.977C103.044 11.7055 101.741 12.7654 100.725 14.0756C99.7081 15.3857 99.0054 16.9111 98.6698 18.5351C98.3343 20.159 98.3754 21.8381 98.7894 23.4438C99.2034 25.0494 99.9795 26.5388 101.059 27.7979C102.138 29.057 103.491 30.0521 105.014 30.7072C106.538 31.3622 108.191 31.6597 109.847 31.5768C111.503 31.4939 113.118 31.0327 114.568 30.2288V31.5903H120.176V20.7438V20.73C120.173 17.8514 119.028 15.0916 116.992 13.0562C114.956 11.0208 112.196 9.87601 109.318 9.87306Z" fill="#FAF4F2"/>
  <path d="M56.4981 25.4363C55.5061 26.6887 54.1488 27.6013 52.6147 28.0474C51.0805 28.4935 49.4455 28.451 47.9365 27.9257C46.4276 27.4006 45.1196 26.4187 44.194 25.1164C43.2684 23.8142 42.7711 22.2561 42.7711 20.6584C42.7711 19.0607 43.2684 17.5026 44.194 16.2003C45.1196 14.8981 46.4276 13.9162 47.9365 13.391C49.4455 12.8658 51.0805 12.8233 52.6147 13.2694C54.1488 13.7155 55.5061 14.6281 56.4981 15.8805L56.6231 16.0366L58.9237 13.7361L58.8177 13.6101C57.3729 11.8979 55.4368 10.671 53.2715 10.0956C51.1063 9.52024 48.8167 9.62413 46.7125 10.3932C44.6082 11.1624 42.7912 12.5596 41.5075 14.3957C40.2237 16.2318 39.5352 18.4181 39.5352 20.6584C39.5352 22.8988 40.2237 25.0851 41.5075 26.9211C42.7912 28.7572 44.6082 30.1544 46.7125 30.9235C48.8167 31.6926 51.1063 31.7966 53.2715 31.2212C55.4368 30.6458 57.3729 29.4189 58.8177 27.7066L58.9237 27.5809L56.6231 25.2802L56.4981 25.4363Z" fill="#FAF4F2"/>
  <path d="M26.0999 9.729C24.1301 9.72857 22.1967 10.2605 20.5044 11.2685C18.812 12.2766 17.4236 13.7233 16.4858 15.4556C15.5481 17.1879 15.0959 19.1415 15.1773 21.1097C15.2587 23.0778 15.8704 24.9874 16.9478 26.6365C18.0253 28.2855 19.5285 29.6127 21.2982 30.4777C23.068 31.3426 25.0386 31.7133 27.0017 31.5503C28.9648 31.3873 30.8474 30.6967 32.4502 29.5517C34.0531 28.4067 35.3168 26.8498 36.1075 25.0456L36.217 24.7956H32.5842L32.5307 24.8758C31.6994 26.1448 30.5111 27.1395 29.1157 27.7349C27.7203 28.3302 26.18 28.4994 24.6886 28.2213C23.1972 27.9433 21.8212 27.2303 20.7342 26.172C19.6471 25.1138 18.8972 23.7576 18.5791 22.2742H36.9076L36.9292 22.1199C36.9947 21.6349 37.0281 21.146 37.0292 20.6567C37.0257 17.7592 35.873 14.9815 33.8241 12.9329C31.7752 10.8842 28.9973 9.73203 26.0999 9.729ZM18.5782 19.0407C18.9476 17.3203 19.8957 15.7785 21.2643 14.6726C22.633 13.5666 24.3394 12.9633 26.099 12.9633C27.8587 12.9633 29.565 13.5666 30.9336 14.6726C32.3023 15.7785 33.2503 17.3203 33.6197 19.0407H18.5782Z" fill="#FAF4F2"/>
  <path d="M61.9863 31.5884H65.2208V19.307C65.2183 18.4678 65.3816 17.6365 65.701 16.8606C66.0205 16.0846 66.4899 15.3793 67.0825 14.7852C67.675 14.191 68.3789 13.7195 69.1539 13.3978C69.929 13.0762 70.7599 12.9106 71.599 12.9106C72.4384 12.9106 73.2692 13.0762 74.044 13.3978C74.8194 13.7195 75.5228 14.191 76.1154 14.7852C76.708 15.3793 77.1774 16.0846 77.4971 16.8606C77.8168 17.6365 77.9795 18.4678 77.9773 19.307V31.5875H81.2123V18.8845H81.2008C81.1216 17.0696 80.5304 15.3142 79.4944 13.822C78.4583 12.3298 77.0204 11.162 75.3472 10.4542C73.6739 9.74647 71.8345 9.52759 70.042 9.82322C68.2497 10.1188 66.5779 10.9167 65.2207 12.1242V0.215332H61.9863V31.5884Z" fill="#FAF4F2"/>
  <path d="M3.86323 9.72918H0.134766V12.9635H3.86323V24.7276C3.86528 26.5464 4.58871 28.2902 5.87482 29.5763C7.16093 30.8624 8.90473 31.5859 10.7235 31.5879H14.1071V28.3526H10.7235C9.76246 28.3515 8.84108 27.9692 8.16154 27.2896C7.48193 26.61 7.09964 25.6887 7.0985 24.7276V12.9635H12.3343V9.72918H7.0985V2.25928H3.86323V9.72918Z" fill="#FAF4F2"/>
  <path d="M138.829 11.2042C137.729 10.6047 136.533 10.202 135.294 10.0142C135.171 9.99529 135.049 9.97376 134.924 9.95828C134.787 9.94093 134.648 9.9289 134.509 9.91681C134.245 9.89441 133.979 9.8798 133.71 9.87627C133.681 9.87627 133.653 9.87289 133.626 9.87289L133.606 9.87368L133.578 9.87289C130.698 9.87289 127.936 11.0169 125.9 13.0533C123.863 15.0896 122.719 17.8516 122.719 20.7315C122.719 23.6114 123.863 26.3733 125.9 28.4097C127.936 30.4462 130.698 31.5902 133.578 31.5902C133.586 31.5902 133.593 31.5884 133.602 31.5884C133.609 31.5884 133.617 31.5902 133.626 31.5902C133.975 31.5902 134.317 31.5677 134.659 31.5342C134.674 31.5333 134.692 31.5307 134.708 31.5298C136.172 31.3845 137.59 30.9417 138.877 30.2286V31.5901H144.48L144.438 0.215332H138.829V11.2042ZM138.829 20.7341C138.828 22.1261 138.274 23.4608 137.289 24.4445C136.304 25.4283 134.969 25.9807 133.577 25.9802C132.185 25.9796 130.85 25.4263 129.866 24.4418C128.882 23.4573 128.329 22.1222 128.329 20.7302C128.329 19.3382 128.882 18.0031 129.866 17.0186C130.85 16.0341 132.185 15.4808 133.577 15.4802C134.969 15.4797 136.304 16.0321 137.289 17.0159C138.274 17.9996 138.828 19.3343 138.829 20.7263V20.7341Z" fill="#FAF4F2"/>
  <path d="M163.519 31.5479H169.123V20.7039C169.12 18.3191 168.334 16.0015 166.884 14.1079C165.435 12.2143 163.403 10.8496 161.102 10.2242C158.8 9.59892 156.357 9.74746 154.149 10.647C151.94 11.5465 150.089 13.1472 148.879 15.2025C147.67 17.2578 147.169 19.6537 147.456 22.0212C147.742 24.3887 148.798 26.5965 150.462 28.3047C152.126 30.0127 154.306 31.1264 156.665 31.474C159.025 31.8217 161.432 31.3841 163.519 30.2287V31.5479ZM158.267 25.9828C157.229 25.9827 156.214 25.6748 155.35 25.0979C154.487 24.521 153.814 23.7011 153.417 22.7418C153.019 21.7825 152.915 20.727 153.118 19.7084C153.32 18.69 153.82 17.7544 154.554 17.02C155.288 16.2856 156.223 15.7853 157.242 15.5824C158.26 15.3794 159.316 15.4831 160.275 15.88C161.234 16.277 162.055 16.9495 162.632 17.8125C163.209 18.6756 163.518 19.6905 163.519 20.7289V20.735C163.517 22.1269 162.963 23.4612 161.978 24.4451C160.994 25.429 159.659 25.982 158.267 25.9828Z" fill="#FAF4F2"/>
  <path d="M180.67 9.87646C178.528 9.87949 176.475 10.7314 174.961 12.2454C173.446 13.7594 172.593 15.812 172.59 17.9534V31.5904H178.204V17.9534C178.204 17.299 178.463 16.6714 178.925 16.2084C179.388 15.7453 180.015 15.4847 180.67 15.4839H184.619V9.87654L180.67 9.87646Z" fill="#FAF4F2"/>
  </g>
  <defs>
  <clipPath id="clip0_8555_354">
  <rect width="221.04" height="36" fill="white" transform="translate(0.134766)"/>
  </clipPath>
  </defs>
</svg>
  