<svg width="166" height="46" viewBox="0 0 166 46" fill="none" xmlns="http://www.w3.org/2000/svg">
  <path d="M122.672 16.1947L122.517 20.8796C117.047 20.505 115.483 21.911 115.483 26.5018V27.0936H110.795V16.4752H115.483V19.5044C116.889 17.038 118.796 15.9142 122.672 16.1947ZM11.0748 35.2473H15.7631V17.1321H11.0748V35.2473ZM34.3008 16.2272C31.0185 16.2272 29.0172 17.6948 27.9551 19.3197V9.32561H3.25977V13.6975H23.578V27.0953H28.0474C28.0474 23.2537 30.2676 20.5375 32.9872 20.5375C35.3322 20.5375 36.3944 21.6938 36.3944 25.8467V35.249H41.0827V24.1602C41.0844 18.851 38.3648 16.2272 34.3008 16.2272ZM52.7444 31.6554C49.9 31.6554 48.0561 29.9381 47.7431 27.0953H43.3353C43.7732 32.0932 47.0555 35.6219 52.7136 35.6219C57.0906 35.6219 59.5588 33.6549 60.8416 30.6873L56.8717 28.9375C56.2765 30.7181 55.1818 31.6554 52.7444 31.6554ZM52.5563 16.3196C50.8818 16.282 49.2261 16.6702 47.7431 17.4434L49.994 20.6299C50.8373 20.1937 51.7455 19.9748 52.7136 20.0056C55.3392 20.0056 56.6836 21.7246 56.8717 23.9721H52.339V27.0953H61.2795C61.3428 26.6267 61.3736 26.1888 61.3736 25.7219C61.4027 18.9126 56.9008 16.3196 52.5563 16.3196ZM98.9775 31.6554C96.1331 31.6554 94.2892 29.9381 93.9762 27.0953H89.5684C90.0063 32.0932 93.2886 35.6219 98.9467 35.6219C103.324 35.6219 105.792 33.6549 107.075 30.6873L103.105 28.9375C102.479 30.7181 101.384 31.6554 98.9775 31.6554ZM98.8202 16.3196C97.1457 16.282 95.49 16.6685 94.0053 17.4434L96.2562 20.6299C97.0995 20.1937 98.006 19.9748 98.9758 20.0056C101.601 20.0056 102.946 21.7246 103.134 23.9721H98.6012V27.0953H107.542C107.605 26.6267 107.636 26.1888 107.636 25.7219C107.667 18.9126 103.166 16.3196 98.8202 16.3196ZM153.775 31.6554C150.93 31.6554 149.087 29.9381 148.773 27.0953H144.366C144.804 32.0932 148.086 35.6219 153.744 35.6219C158.121 35.6219 160.589 33.6549 161.872 30.6873L157.902 28.9375C157.276 30.7181 156.183 31.6554 153.775 31.6554ZM153.525 16.3196C151.851 16.282 150.195 16.6702 148.712 17.4434L150.963 20.6299C151.808 20.1937 152.714 19.9748 153.682 20.0056C156.308 20.0056 157.652 21.7246 157.84 23.9721H153.308V27.0953H162.248C162.312 26.6267 162.342 26.1888 162.342 25.7219C162.371 18.9126 157.87 16.3196 153.525 16.3196ZM63.7785 7.10547L72.2126 27.0936H77.3388L70.9058 11.1968H79.2203V7.13626L63.7785 7.10547ZM88.7867 7.13626L79.1279 31.5921L77.6894 35.2473H82.5967L94.1934 7.13626H88.7867ZM131.893 34.8111C133.894 34.8111 135.55 34.2484 136.706 33.2803L134.832 30.3127C134.238 30.5624 133.581 30.6565 132.925 30.6565C130.361 30.6565 128.891 29.1256 128.392 27.0953H123.796C124.422 31.4381 127.549 34.8111 131.893 34.8111ZM137.676 19.0991C136.614 17.4126 134.457 16.1947 131.455 16.1947C128.517 16.1639 125.797 17.7564 124.36 20.3494L128.267 22.8483C128.985 21.3483 130.393 20.3494 132.55 20.3494C135.613 20.3494 137.676 22.7235 137.676 25.5337C137.676 26.0657 137.613 26.5959 137.457 27.0953H142.364V16.5077H137.676V19.0991ZM133.144 39.0581C130.111 39.0581 128.985 37.5906 128.767 35.8716H124.297C124.391 39.1505 126.579 42.7424 133.238 42.7424C137.739 42.7424 140.678 40.4932 141.896 37.1202L137.676 35.6527C137.083 37.8403 135.458 39.0581 133.144 39.0581Z" fill="#FAF4F2"/>
</svg>
  