<svg width="626" height="126" viewBox="0 0 626 126" fill="none" xmlns="http://www.w3.org/2000/svg">
<g clipPath="url(#clip0_2032_556)">
<path d="M528.084 19.5925V106.602H570.727C582.642 106.602 589.54 104.711 594.557 100.297C600.828 94.6225 603.963 84.5345 603.963 63.0973C603.963 41.6602 600.828 31.5721 594.557 25.8976C589.54 21.484 582.642 19.5925 570.727 19.5925H528.084ZM586.404 63.0973C586.404 82.0124 585.15 86.426 581.388 88.948C578.879 90.8395 575.744 91.47 569.473 91.47H545.643V34.0941H569.473C575.744 34.0941 578.879 34.0941 581.388 36.6161C585.15 39.7687 586.404 44.1822 586.404 63.0973ZM625.912 125.835H500.802V0.046875H625.912V125.835ZM398.589 34.0941V19.5925H472.588V47.3347H456.905V34.0941H426.804V54.9008H450.634V68.7719H426.804V92.1005H457.537V76.9684H473.21V106.602H398.594V92.1005H410.504V34.0941H398.589ZM331.489 83.904C331.489 93.3615 332.111 100.297 333.366 105.972H350.302C349.67 101.558 349.048 93.3615 349.048 82.6429C348.416 70.0329 344.653 68.1413 335.874 66.2498C345.908 64.3583 350.302 59.9448 350.302 44.1822C350.302 31.5721 348.416 26.5281 344.653 23.3755C342.145 20.8535 337.76 19.5925 330.857 19.5925H278.18V106.602H295.739V72.5549H320.201C325.218 72.5549 327.095 73.1854 328.981 74.4464C330.867 75.7074 331.489 77.5989 331.489 83.904ZM295.739 58.6838V34.7246H323.964C327.727 34.7246 328.981 35.3551 329.603 35.9856C330.857 37.2466 332.111 39.1381 332.111 46.7042C332.111 54.2703 330.857 56.7923 329.603 58.0533C328.981 58.6838 327.727 59.3143 323.964 59.3143L295.739 58.6838ZM375.387 125.835H249.966V0.046875H375.07V125.835H375.387ZM217.356 92.1005V106.602H157.777V92.1005H179.098V34.0941H157.777V19.5925H217.351V34.0941H196.03V92.1005H217.356ZM116.704 19.5925H100.399L88.4841 88.3175L74.6878 24.6365C74.0607 20.223 72.1794 19.5925 68.4168 19.5925H59.6373C55.8747 19.5925 53.9934 20.8535 53.3663 24.6365L39.57 88.3175L27.6551 19.5925H10.0962L27.028 102.189C27.6551 105.972 28.9093 106.602 33.299 106.602H45.214C48.9766 106.602 50.2308 105.972 51.485 102.189L64.6542 42.2907L77.8233 102.189C78.4504 105.972 79.7047 106.602 84.0944 106.602H95.3822C99.1449 106.602 101.026 105.972 101.653 102.189L116.704 19.5925ZM125.483 125.835H0.0625V0.046875H125.172V125.835H125.483Z" fill="#fff"/>
</g>
<defs>
<clipPath id="clip0_2032_556">
<rect width="626" height="126" fill="white"/>
</clipPath>
</defs>
</svg>
